<?xml version="1.0" standalone="no"?><!-- Generator: Gravit.io --><svg xmlns="http://www.w3.org/2000/svg" xmlns:xlink="http://www.w3.org/1999/xlink" style="isolation:isolate" viewBox="-193.019 -200.944 1278.197 1080.465" width="1278.197" height="1080.465"><defs><clipPath id="_clipPath_tl9ae5GZbHbBaI4Dm0HmiRJAfZrd5Xsw"><rect x="-193.019" y="-200.944" width="1278.197" height="1080.465"/></clipPath></defs><g clip-path="url(#_clipPath_tl9ae5GZbHbBaI4Dm0HmiRJAfZrd5Xsw)"><g style="mix-blend-mode:normal;" opacity="0.91"><path d="M 306.203 -185.621 L 513.843 -199.695 C 808.59 -219.674 1064.044 2.464 1083.944 296.053 L 1083.944 296.053 C 1103.844 589.643 880.703 844.22 585.956 864.198 L 378.315 878.272 C 83.568 898.251 -171.885 676.113 -191.785 382.524 L -191.785 382.524 C -211.685 88.934 11.456 -165.643 306.203 -185.621 Z" style="stroke:none;fill:#FFFFFF;stroke-miterlimit:10;"/></g><g><path d=" M 349.483 180.505 L 349.548 136.136 L 349.612 136.136 C 352.832 136.136 355.472 138.454 355.408 141.287 L 355.279 175.482 C 355.343 178.251 352.703 180.505 349.483 180.505 L 349.483 180.505 Z " fill="rgb(206,200,196)"/><path d=" M 300.735 710.107 L 54.802 709.27 C 26.21 709.206 3.155 685.959 3.22 657.366 L 5.216 51.582 C 5.281 22.99 28.528 -0.064 57.12 0 L 300.477 0.773 C 329.069 0.837 352.124 24.085 352.059 52.677 L 350.063 661.037 C 349.998 688.212 327.91 710.172 300.735 710.107 Z " fill="rgb(219,219,219)"/><rect x="8.43" y="49.125" width="7.985" height="11.334" transform="matrix(1,0,0,1,0,0)" fill="rgb(224,224,226)"/><rect x="343.488" y="56.55" width="7.985" height="11.334" transform="matrix(-1,0,0,-1,694.961,124.435)" fill="rgb(224,224,226)"/><rect x="8.423" y="633.349" width="7.985" height="11.334" transform="matrix(1,0,0,1,0,0)" fill="rgb(224,224,226)"/><rect x="341.401" y="640.765" width="7.985" height="11.334" transform="matrix(-1,0,0,-1,690.788,1292.863)" fill="rgb(224,224,226)"/><path d=" M 286.76 703.153 L 65.814 702.444 C 24.729 703.732 6.955 675.333 8.372 643.521 L 10.304 60.405 C 9.144 17.387 31.039 1.159 68.132 1.868 L 289.079 2.576 C 324.846 2.576 339.785 18.547 344.611 40.89 C 345.998 47.31 346.55 54.255 346.521 61.499 L 344.589 644.616 C 345.813 677.909 331.71 703.217 286.76 703.153 Z " fill="rgb(238,239,246)"/><rect x="34.617" y="69.372" width="294.488" height="542.227" transform="matrix(1,0,0,1,0,0)" fill="rgb(47,50,57)"/><path d=" M 325.399 557.1 L 325.592 617.44 L 31.104 618.406 L 29.301 76.182 L 46.43 76.118 L 325.399 557.1 Z " fill="rgb(34,36,40)"/><path d=" M 148.822 658.976 C 148.822 643.337 161.518 630.641 177.157 630.641 C 192.795 630.641 205.491 643.337 205.491 658.976 C 205.491 674.615 192.795 687.311 177.157 687.311 C 161.518 687.311 148.822 674.615 148.822 658.976 Z " fill="rgb(209,209,211)"/><path d=" M 151.011 658.976 C 151.017 644.539 162.719 632.836 177.157 632.831 C 191.594 632.836 203.296 644.539 203.302 658.976 C 203.296 673.414 191.594 685.116 177.157 685.121 C 162.719 685.116 151.017 673.414 151.011 658.976 Z " fill="rgb(245,245,247)"/><path d=" M 152.492 658.976 C 152.498 645.357 163.537 634.317 177.157 634.312 C 190.776 634.317 201.815 645.357 201.821 658.976 C 201.815 672.596 190.776 683.635 177.157 683.64 C 163.537 683.635 152.498 672.596 152.492 658.976 Z " fill="rgb(193,193,193)"/><path d=" M 155.712 658.976 C 155.718 647.135 165.315 637.537 177.157 637.532 C 188.998 637.537 198.595 647.135 198.601 658.976 C 198.595 670.817 188.998 680.415 177.157 680.42 C 165.315 680.415 155.718 670.817 155.712 658.976 L 155.712 658.976 Z " fill="rgb(238,239,246)"/><path d=" M 4.508 174.581 L 4.701 130.211 L 4.637 130.211 C 2.125 130.211 0.129 132.465 0.129 135.299 L 0 169.493 C 0 172.327 1.996 174.581 4.508 174.581 Z " fill="rgb(206,200,196)"/><path d=" M 4.379 232.345 L 4.572 187.975 L 4.508 187.975 C 2.64 187.975 1.159 190.229 1.159 193.063 L 1.03 227.258 C 1.03 230.027 2.511 232.345 4.379 232.345 Z " fill="rgb(206,200,196)"/><path d=" M 4.637 123.514 L 4.765 93.762 C 3.349 93.762 2.19 95.308 2.19 97.175 L 2.125 120.101 C 2.061 121.968 3.22 123.514 4.637 123.514 Z " fill="rgb(206,200,196)"/></g><rect x="18.888" y="69.697" width="316.103" height="552.303" transform="matrix(1,0,0,1,0,0)" fill="none" vector-effect="non-scaling-stroke" stroke-width="1" stroke="rgb(200,200,200)" stroke-linejoin="miter" stroke-linecap="square" stroke-miterlimit="2"/><clipPath id="_clipPath_9UmF7hWdR8Jrr0eAleSzistvBdgYEbA1"><rect x="18.888" y="69.697" width="316.103" height="552.303" transform="matrix(1,0,0,1,0,0)" fill="none" vector-effect="non-scaling-stroke" stroke-width="1" stroke="rgb(200,200,200)" stroke-linejoin="miter" stroke-linecap="square" stroke-miterlimit="2"/></clipPath><g clip-path="url(#_clipPath_9UmF7hWdR8Jrr0eAleSzistvBdgYEbA1)"><g><rect x="18.888" y="69.697" width="316.103" height="552.303" transform="matrix(1,0,0,1,0,0)" fill="rgb(255,255,255)"/><rect x="18.888" y="69.697" width="316.103" height="561.962" transform="matrix(1,0,0,1,0,0)" fill="rgb(255,255,255)"/><g><path d=" M 18.888 69.697 L 334.991 69.697 L 334.991 281.311 C 334.991 293.434 325.163 303.262 313.04 303.262 L 40.839 303.262 C 28.716 303.262 18.888 293.434 18.888 281.311 L 18.888 69.697 Z " fill="rgb(148,231,206)" fill-opacity="0.38"/><path d=" M 19.766 70.136 L 334.113 70.136 C 334.356 70.136 334.552 70.333 334.552 70.575 L 334.552 281.311 C 334.552 293.192 324.921 302.823 313.04 302.823 L 40.839 302.823 C 28.958 302.823 19.327 293.192 19.327 281.311 L 19.327 70.575 C 19.327 70.333 19.523 70.136 19.766 70.136 Z " fill="none" vector-effect="non-scaling-stroke" stroke-width="1" stroke="rgb(112,112,112)" stroke-linejoin="miter" stroke-linecap="butt" stroke-miterlimit="4"/></g><g transform="matrix(0.878,0,0,0.878,39.961,113.031)"><text transform="matrix(1,0,0,1,0,64.131)" style="font-family:'Open Sans';font-weight:400;font-size:60px;font-style:normal;fill:#000000;stroke:none;">5100 ARX</text></g><g transform="matrix(0.878,0,0,0.878,39.961,85.605)"><text transform="matrix(1,0,0,1,1.563,21.377)" style="font-family:'Open Sans';font-weight:400;font-size:20px;font-style:normal;fill:#000000;stroke:none;">Juan Pérez</text></g><g transform="matrix(0.878,0,0,0.878,39.961,185.782)"><text transform="matrix(1,0,0,1,0,38.479)" style="font-family:'Open Sans';font-weight:400;font-size:36px;font-style:normal;fill:#000000;stroke:none;">295.099,99 ARS</text></g><g><path d="M 57.962 245.31 L 131.719 245.31 C 141.654 245.31 149.719 253.376 149.719 263.31 L 149.719 263.31 C 149.719 273.245 141.654 281.311 131.719 281.311 L 57.962 281.311 C 48.027 281.311 39.961 273.245 39.961 263.31 L 39.961 263.31 C 39.961 253.376 48.027 245.31 57.962 245.31 Z" style="stroke:none;fill:#000000;stroke-miterlimit:10;opacity:0.09;"/><path d="M 57.962 245.749 L 131.719 245.749 C 141.411 245.749 149.28 253.618 149.28 263.31 L 149.28 263.31 C 149.28 273.003 141.411 280.872 131.719 280.872 L 57.962 280.872 C 48.269 280.872 40.4 273.003 40.4 263.31 L 40.4 263.31 C 40.4 253.618 48.269 245.749 57.962 245.749 Z" style="fill:none;stroke:#707070;stroke-width:1;stroke-miterlimit:2;"/></g><g transform="matrix(0.878,0,0,0.878,51.842,251.559)"><text transform="matrix(1,0,0,1,0,21.377)" style="font-family:'Open Sans';font-weight:400;font-size:20px;font-style:normal;fill:#707070;stroke:none;">COMPRAR</text></g><g><path d="M 175.622 245.31 L 249.38 245.31 C 259.315 245.31 267.38 253.376 267.38 263.31 L 267.38 263.31 C 267.38 273.245 259.315 281.311 249.38 281.311 L 175.622 281.311 C 165.688 281.311 157.622 273.245 157.622 263.31 L 157.622 263.31 C 157.622 253.376 165.688 245.31 175.622 245.31 Z" style="stroke:none;fill:#000000;stroke-miterlimit:2;opacity:0.09;"/><path d="M 175.622 245.749 L 249.38 245.749 C 259.072 245.749 266.941 253.618 266.941 263.31 L 266.941 263.31 C 266.941 273.003 259.072 280.872 249.38 280.872 L 175.622 280.872 C 165.93 280.872 158.061 273.003 158.061 263.31 L 158.061 263.31 C 158.061 253.618 165.93 245.749 175.622 245.749 Z" style="fill:none;stroke:#707070;stroke-width:1;stroke-miterlimit:2;"/></g><g transform="matrix(0.878,0,0,0.878,178.558,251.422)"><text transform="matrix(1,0,0,1,0,21.377)" style="font-family:'Open Sans';font-weight:400;font-size:20px;font-style:normal;fill:#707070;stroke:none;">VENDER</text></g><g><path d="M 293.283 246.188 L 295.917 246.188 C 305.852 246.188 313.918 254.254 313.918 264.188 L 313.918 264.188 C 313.918 274.123 305.852 282.189 295.917 282.189 L 293.283 282.189 C 283.348 282.189 275.283 274.123 275.283 264.188 L 275.283 264.188 C 275.283 254.254 283.348 246.188 293.283 246.188 Z" style="stroke:none;fill:#000000;stroke-miterlimit:2;opacity:0.09;"/><path d="M 293.283 246.627 L 295.917 246.627 C 305.61 246.627 313.479 254.496 313.479 264.188 L 313.479 264.188 C 313.479 273.881 305.61 281.75 295.917 281.75 L 293.283 281.75 C 283.591 281.75 275.722 273.881 275.722 264.188 L 275.722 264.188 C 275.722 254.496 283.591 246.627 293.283 246.627 Z" style="fill:none;stroke:#707070;stroke-width:1;stroke-miterlimit:2;"/></g><g transform="matrix(0.878,0,0,0.878,39.961,316.536)"><text transform="matrix(1,0,0,1,0,21.377)" style="font-family:'Open Sans';font-weight:400;font-size:20px;font-style:normal;fill:#707070;stroke:none;">150</text></g><path d=" M 19.191 548.36 L 22.385 536.223 L 22.385 548.36 L 24.026 545.079 L 25.58 541.972 L 31.329 548.36 L 31.329 541.972 L 35.002 537.574 L 38.356 536.223 L 39.399 539.622 L 42.893 545.224 C 42.893 545.224 45.352 553.653 45.383 553.471 C 49.216 533.028 49.855 532.389 49.855 527.919 C 49.855 523.449 52.411 548.361 52.411 548.361 L 56.883 560.499 L 60.715 540.056 L 62.632 553.471 L 65.06 523.37 L 67.103 508.115 L 69.189 517.861 L 71.425 536.271 L 76.05 515.139 L 79.883 531.749 L 79.883 517.697 L 83.715 502.365 L 87.084 510.67 L 91.381 515.142 L 98.405 509.393 L 103.516 511.309 L 105.109 506.507 L 109.265 510.671 L 111.215 507.089 L 113.737 509.393 L 113.737 496.612 L 120.125 517.694 L 122.042 502.362 L 125.236 497.252 L 127.792 485.114 L 128.431 502.362 L 130.348 511.944 L 136.097 510.027 L 139.292 504.917 L 143.764 511.942 L 144.403 504.276 L 148.875 496.611 L 153.985 510.026 L 157.818 503.638 L 158.457 495.972 L 159.735 490.223 L 165.484 504.915 L 169.317 521.525 L 169.956 492.139 L 172.511 483.834 L 175.067 472.974 L 175.067 490.223 L 177.622 506.193 L 180.816 497.888 L 181.455 489.583 L 186.566 489.583 L 187.843 483.834 L 194.231 490.222 L 196.148 485.111 L 201.258 490.861 L 205.091 486.389 L 206.369 477.445 L 211.088 472.544 L 214.673 465.307 L 217.667 459.622 L 219.145 449.976 L 219.785 460.836 L 221.702 465.946 L 223.314 472.176 L 226.811 474.001 L 228.161 462.363 L 228.729 446.781 L 231.284 449.336 L 235.756 451.892 L 238.311 447.42 L 242.783 448.697 L 247.893 448.058 L 248.533 441.67 L 249.81 437.198 L 253.052 442.457 L 254.921 451.251 L 258.116 446.779 L 258.389 440.507 L 258.755 432.087 L 261.31 421.865 L 263.865 433.368 L 266.421 407.176 C 266.421 407.176 268.414 420.098 268.638 418.308 C 268.638 418.308 272.44 402.875 272.44 402.875 L 277.584 404.889 L 280.043 408.244 L 282.727 402.875 L 284.517 404.889 L 287.424 397.06 L 288.989 399.744 L 293.463 394.827 L 296.371 394.827 L 299.726 387.446 L 301.516 393.037 L 306.213 399.748 L 308.002 394.83 L 313.594 397.067 L 316.052 394.83 L 318.737 395.949 L 320.078 392.147 L 322.315 388.792 L 323.656 392.147 L 326.115 389.911 L 327.457 392.147 L 330.588 383.871 L 332.601 387.45 L 334.391 370.679" fill="none" vector-effect="non-scaling-stroke" stroke-width="3" stroke="rgb(33,206,153)" stroke-linejoin="miter" stroke-linecap="butt" stroke-miterlimit="4"/><g transform="matrix(0.878,0,0,0.878,44.352,588.716)"><text transform="matrix(1,0,0,1,0,21.377)" style="font-family:'Open Sans';font-weight:400;font-size:20px;font-style:normal;fill:#21CE99;stroke:none;">1D</text></g><g transform="matrix(0.878,0,0,0.878,91.767,588.716)"><text transform="matrix(1,0,0,1,0,21.377)" style="font-family:'Open Sans';font-weight:400;font-size:20px;font-style:normal;fill:#21CE99;stroke:none;">1W</text></g><g transform="matrix(0.878,0,0,0.878,190.989,588.716)"><text transform="matrix(1,0,0,1,0,21.377)" style="font-family:'Open Sans';font-weight:400;font-size:20px;font-style:normal;fill:#21CE99;stroke:none;">3M</text></g><g transform="matrix(0.878,0,0,0.878,141.817,588.716)"><text transform="matrix(1,0,0,1,0,21.377)" style="font-family:'Open Sans';font-weight:400;font-size:20px;font-style:normal;fill:#21CE99;stroke:none;">1M</text></g><g transform="matrix(0.878,0,0,0.878,242.794,588.716)"><text transform="matrix(1,0,0,1,0,21.377)" style="font-family:'Open Sans';font-weight:400;font-size:20px;font-style:normal;fill:#000000;stroke:none;">1Y</text></g><g transform="matrix(0.878,0,0,0.878,287.576,588.716)"><text transform="matrix(1,0,0,1,0,21.377)" style="font-family:'Open Sans';font-weight:400;font-size:20px;font-style:normal;fill:#21CE99;stroke:none;">ALL</text></g><rect x="233.081" y="611.463" width="43.025" height="1.756" transform="matrix(1,0,0,1,0,0)" fill="rgb(0,0,0)"/></g></g><rect x="18.888" y="69.697" width="316.103" height="552.303" transform="matrix(1,0,0,1,0,0)" fill="transparent" vector-effect="non-scaling-stroke" stroke-width="1" stroke="rgb(200,200,200)" stroke-linejoin="miter" stroke-linecap="square" stroke-miterlimit="2"/><path d=" M 295.959 277.844 L 292.972 277.844 C 292 277.844 291.204 277.049 291.204 276.077 L 291.204 275.374 C 291.204 275.312 291.173 275.075 290.925 274.982 C 290.894 274.971 290.874 274.961 290.853 274.951 C 290.429 274.806 290.006 274.63 289.613 274.423 C 289.592 274.413 289.561 274.403 289.54 274.392 C 289.468 274.392 289.251 274.506 289.127 274.599 L 288.693 275.033 C 288.001 275.726 286.884 275.726 286.192 275.033 L 284.063 272.914 C 283.37 272.222 283.37 271.106 284.063 270.413 L 284.455 270.021 C 284.755 269.721 284.579 269.318 284.579 269.307 C 284.559 269.266 284.538 269.225 284.528 269.173 C 284.404 268.894 284.28 268.615 284.187 268.336 C 284.176 268.305 284.156 268.284 284.145 268.253 C 284.001 267.902 283.525 267.891 283.505 267.891 L 283.019 267.891 C 282.047 267.891 281.251 267.096 281.251 266.124 L 281.251 263.137 C 281.251 262.166 282.047 261.37 283.019 261.37 L 283.505 261.37 C 283.515 261.37 284.001 261.359 284.145 261.008 C 284.156 260.977 284.166 260.946 284.187 260.925 C 284.29 260.646 284.404 260.367 284.528 260.088 C 284.538 260.047 284.559 260.006 284.579 259.964 C 284.6 259.902 284.745 259.54 284.455 259.251 L 284.063 258.858 C 283.37 258.166 283.37 257.05 284.063 256.357 L 286.181 254.238 C 286.874 253.546 287.99 253.546 288.683 254.238 L 289.117 254.672 C 289.261 254.776 289.478 254.89 289.561 254.869 C 289.571 254.859 289.582 254.859 289.592 254.859 C 289.995 254.662 290.419 254.476 290.853 254.331 C 290.874 254.321 290.905 254.311 290.925 254.3 C 291.173 254.207 291.194 253.959 291.204 253.897 L 291.204 253.205 C 291.204 252.233 292 251.438 292.972 251.438 L 295.959 251.438 C 296.93 251.438 297.726 252.233 297.726 253.205 L 297.726 253.908 C 297.726 253.97 297.757 254.207 298.005 254.3 C 298.036 254.311 298.057 254.321 298.078 254.331 C 298.512 254.486 298.925 254.662 299.328 254.859 C 299.349 254.869 299.369 254.879 299.4 254.89 C 299.462 254.89 299.669 254.786 299.824 254.683 L 300.258 254.249 C 300.951 253.556 302.067 253.556 302.759 254.249 L 304.878 256.367 C 305.571 257.06 305.571 258.176 304.878 258.869 L 304.485 259.261 C 304.206 259.551 304.341 259.913 304.372 259.985 C 304.382 260.016 304.403 260.057 304.413 260.088 C 304.547 260.367 304.661 260.657 304.765 260.936 C 304.775 260.967 304.796 260.987 304.806 261.018 C 304.951 261.37 305.426 261.38 305.447 261.38 L 305.932 261.38 C 306.904 261.38 307.7 262.176 307.7 263.148 L 307.7 266.134 C 307.7 267.106 306.904 267.902 305.932 267.902 L 305.447 267.902 C 305.436 267.902 304.951 267.912 304.806 268.264 C 304.796 268.293 304.782 268.321 304.765 268.346 C 304.661 268.625 304.547 268.904 304.423 269.183 C 304.413 269.225 304.392 269.266 304.372 269.318 C 304.351 269.38 304.206 269.741 304.496 270.031 L 304.889 270.424 C 305.219 270.754 305.405 271.199 305.405 271.674 C 305.405 272.15 305.219 272.594 304.889 272.925 L 302.77 275.044 C 302.077 275.736 300.961 275.736 300.269 275.044 L 299.835 274.609 C 299.69 274.506 299.473 274.403 299.39 274.413 C 299.38 274.423 299.359 274.423 299.349 274.434 C 298.946 274.63 298.522 274.806 298.098 274.961 C 298.078 274.971 298.047 274.982 298.026 274.992 C 297.757 275.095 297.747 275.385 297.747 275.385 L 297.747 276.087 C 297.726 277.049 296.93 277.844 295.959 277.844 L 295.959 277.844 Z  M 291.68 273.617 C 292.517 274.051 292.744 274.899 292.744 275.364 L 292.744 276.067 C 292.744 276.18 292.848 276.284 292.961 276.284 L 295.948 276.284 C 296.062 276.284 296.165 276.18 296.165 276.067 L 296.165 275.364 C 296.165 274.899 296.393 274.041 297.24 273.607 C 297.292 273.566 297.364 273.535 297.426 273.514 C 297.902 273.359 298.367 273.163 298.801 272.935 C 298.925 272.873 299.059 272.832 299.194 272.852 C 300 272.759 300.723 273.338 300.816 273.411 C 300.837 273.431 300.858 273.442 300.868 273.462 L 301.333 273.927 C 301.416 274.01 301.561 274.01 301.643 273.927 L 303.762 271.809 C 303.814 271.757 303.824 271.685 303.824 271.654 C 303.824 271.623 303.814 271.55 303.762 271.499 L 303.369 271.106 C 302.635 270.372 302.666 269.452 302.852 268.873 C 302.863 268.801 302.883 268.729 302.914 268.667 C 303.07 268.336 303.214 268.005 303.328 267.674 C 303.349 267.602 303.39 267.54 303.431 267.478 C 303.907 266.569 304.878 266.32 305.426 266.331 L 305.912 266.331 C 306.025 266.331 306.129 266.227 306.129 266.114 L 306.129 263.127 C 306.129 263.013 306.025 262.91 305.912 262.91 L 305.416 262.91 C 304.878 262.91 303.896 262.662 303.431 261.752 C 303.39 261.701 303.359 261.628 303.338 261.566 C 303.224 261.226 303.086 260.894 302.925 260.574 C 302.894 260.502 302.873 260.429 302.852 260.357 C 302.677 259.789 302.646 258.869 303.38 258.135 L 303.772 257.742 C 303.855 257.659 303.855 257.515 303.772 257.432 L 301.654 255.313 C 301.571 255.231 301.426 255.231 301.344 255.313 L 300.878 255.778 L 300.827 255.83 C 300.734 255.902 300.01 256.481 299.204 256.388 C 299.07 256.398 298.935 256.367 298.811 256.295 C 298.377 256.068 297.922 255.871 297.437 255.716 C 297.364 255.696 297.302 255.665 297.24 255.623 C 296.403 255.189 296.176 254.342 296.176 253.866 L 296.176 253.164 C 296.176 253.05 296.072 252.946 295.959 252.946 L 292.972 252.946 C 292.858 252.946 292.755 253.05 292.755 253.164 L 292.755 253.866 C 292.755 254.331 292.527 255.189 291.68 255.623 C 291.628 255.665 291.556 255.696 291.494 255.716 C 291.018 255.871 290.553 256.068 290.119 256.295 C 289.995 256.357 289.861 256.388 289.727 256.388 C 288.92 256.471 288.197 255.902 288.104 255.83 C 288.083 255.809 288.063 255.799 288.052 255.778 L 287.587 255.313 C 287.504 255.231 287.36 255.231 287.277 255.313 L 285.158 257.432 C 285.076 257.515 285.076 257.659 285.158 257.742 L 285.551 258.135 C 286.295 258.879 286.254 259.799 286.068 260.367 C 286.057 260.44 286.037 260.502 286.006 260.574 C 285.85 260.897 285.712 261.228 285.592 261.566 C 285.572 261.639 285.53 261.701 285.489 261.763 C 285.014 262.672 284.011 262.91 283.494 262.91 L 283.009 262.91 C 282.895 262.91 282.791 263.013 282.791 263.127 L 282.791 266.114 C 282.791 266.227 282.895 266.331 283.009 266.331 L 283.505 266.331 C 284.042 266.331 285.024 266.579 285.489 267.488 C 285.53 267.54 285.561 267.612 285.582 267.674 C 285.696 268.005 285.83 268.336 285.995 268.667 C 286.026 268.739 286.047 268.811 286.057 268.884 C 286.233 269.452 286.274 270.372 285.53 271.106 L 285.138 271.499 C 285.055 271.581 285.055 271.726 285.138 271.809 L 287.256 273.927 C 287.339 274.01 287.484 274.01 287.566 273.927 L 288.032 273.462 L 288.083 273.411 C 288.176 273.338 288.9 272.759 289.706 272.852 C 289.84 272.842 289.975 272.873 290.099 272.935 C 290.533 273.163 290.998 273.359 291.473 273.514 C 291.566 273.545 291.628 273.576 291.68 273.617 L 291.68 273.617 Z  M 294.46 271.457 C 290.698 271.457 287.628 268.398 287.628 264.625 C 287.628 260.863 290.688 257.794 294.46 257.794 C 298.222 257.794 301.292 260.853 301.292 264.625 C 301.292 268.398 298.233 271.457 294.46 271.457 Z  M 294.46 259.354 C 291.546 259.354 289.179 261.721 289.179 264.636 C 289.179 267.55 291.546 269.917 294.46 269.917 C 297.375 269.917 299.742 267.55 299.742 264.636 C 299.742 261.721 297.375 259.354 294.46 259.354 Z " fill="rgb(147,149,152)"/><path d=" M 74.388 329.375 L 77.043 329.375 L 77.043 335.828 L 81.345 335.828 L 81.345 329.375 L 84 329.375 L 79.194 321.897 L 74.388 329.375 Z " fill="rgb(20,187,65)"/></g></svg>