<?xml version="1.0" encoding="UTF-8" standalone="no"?>
<!-- Created with Inkscape (http://www.inkscape.org/) -->

<svg
   xmlns:dc="http://purl.org/dc/elements/1.1/"
   xmlns:cc="http://creativecommons.org/ns#"
   xmlns:rdf="http://www.w3.org/1999/02/22-rdf-syntax-ns#"
   xmlns:svg="http://www.w3.org/2000/svg"
   xmlns="http://www.w3.org/2000/svg"
   xmlns:xlink="http://www.w3.org/1999/xlink"
   xmlns:sodipodi="http://sodipodi.sourceforge.net/DTD/sodipodi-0.dtd"
   xmlns:inkscape="http://www.inkscape.org/namespaces/inkscape"
   width="32mm"
   height="32mm"
   viewBox="0 0 32.000001 32"
   version="1.1"
   id="svg8"
   inkscape:version="0.92.3 (2405546, 2018-03-11)"
   sodipodi:docname="logo.svg"
   inkscape:export-filename="C:\Users\fran_\Documents\Dex\logo.png"
   inkscape:export-xdpi="406.39999"
   inkscape:export-ydpi="406.39999">
  <defs
     id="defs2">
    <linearGradient
       inkscape:collect="always"
       id="linearGradient826">
      <stop
         style="stop-color:#3000a5;stop-opacity:1"
         offset="0"
         id="stop822" />
      <stop
         style="stop-color:#21ce99;stop-opacity:1"
         offset="1"
         id="stop824" />
    </linearGradient>
    <linearGradient
       inkscape:collect="always"
       xlink:href="#linearGradient826"
       id="linearGradient828"
       x1="45.909744"
       y1="95.049591"
       x2="63.071125"
       y2="81.725929"
       gradientUnits="userSpaceOnUse" />
    <linearGradient
       inkscape:collect="always"
       xlink:href="#linearGradient826"
       id="linearGradient835"
       gradientUnits="userSpaceOnUse"
       x1="45.909744"
       y1="95.049591"
       x2="63.071125"
       y2="81.725929" />
  </defs>
  <sodipodi:namedview
     id="base"
     pagecolor="#ffffff"
     bordercolor="#666666"
     borderopacity="1.0"
     inkscape:pageopacity="0.0"
     inkscape:pageshadow="2"
     inkscape:zoom="1.4"
     inkscape:cx="24.531776"
     inkscape:cy="79.572285"
     inkscape:document-units="mm"
     inkscape:current-layer="text817"
     showgrid="false"
     inkscape:pagecheckerboard="true"
     inkscape:window-width="1366"
     inkscape:window-height="705"
     inkscape:window-x="-8"
     inkscape:window-y="-8"
     inkscape:window-maximized="1" />
  <metadata
     id="metadata5">
    <rdf:RDF>
      <cc:Work
         rdf:about="">
        <dc:format>image/svg+xml</dc:format>
        <dc:type
           rdf:resource="http://purl.org/dc/dcmitype/StillImage" />
        <dc:title></dc:title>
      </cc:Work>
    </rdf:RDF>
  </metadata>
  <g
     inkscape:label="Layer 1"
     inkscape:groupmode="layer"
     id="layer1"
     transform="translate(-51.579387,-66.413124)">
    <g
       aria-label="A"
       style="font-style:normal;font-variant:normal;font-weight:normal;font-stretch:normal;font-size:25.39999962px;line-height:1.25;font-family:Gugi;-inkscape-font-specification:Gugi;letter-spacing:0px;word-spacing:0px;fill:url(#linearGradient828);fill-opacity:1;stroke:none;stroke-width:0.26458332"
       id="text817"
       transform="matrix(1.3130893,0,0,1.3130893,-11.354133,-33.3377)">
      <path
         d="m 60.116962,80.506125 -5.5626,17.0688 v -0.0254 q -0.1524,0.381 -0.4318,0.635 -0.254,0.2286 -0.635,0.2286 -0.2032,0 -0.4064,-0.0508 -0.1778,-0.0254 -0.381,-0.0762 h 0.0254 q -1.4478,-0.4572 -1.0668,-1.6256 l 5.7912,-17.6022 q 0.127,-0.4064 0.4318,-0.6858 0.3302,-0.2794 0.762,-0.3302 0.4318,-0.0762 0.8382,-0.1016 0.4064,-0.0508 0.635,-0.0508 0.2286,0 0.635,0.0508 0.4064,0.0254 0.8382,0.0762 0.3556,0.0508 0.6858,0.381 0.3556,0.3302 0.5334,0.6604 1.4224,4.3688 2.8702,8.8138 1.4732,4.4196 2.8956,8.7884 0.3556,1.1684 -1.0668,1.6256 -0.2032,0.0508 -0.381,0.0762 -0.1524,0.0508 -0.3556,0.0508 -0.3556,0 -0.6604,-0.2286 -0.2794,-0.254 -0.4064,-0.635 v 0.0254 z m 1.905,11.5824 q 0,0.8128 -0.5842,1.397 -0.5588,0.5588 -1.3716,0.5588 -0.8128,0 -1.3716,-0.5588 -0.5588,-0.5842 -0.5588,-1.397 0,-0.8128 0.5588,-1.3716 0.5588,-0.5842 1.3716,-0.5842 0.8128,0 1.3716,0.5842 0.5842,0.5588 0.5842,1.3716 z"
         style="fill:url(#linearGradient835);fill-opacity:1;stroke-width:0.26458332"
         id="path819"
         inkscape:connector-curvature="0" />
    </g>
  </g>
</svg>
